<svg width="23" height="16" viewBox="0 0 23 16" fill="none" xmlns="http://www.w3.org/2000/svg">
<g clip-path="url(#clip0_1_536)">
<path d="M23 9.59108C22.9212 7.6415 21.7397 6.07287 21.0111 5.01965C20.7157 4.59388 20.5582 4.05606 20.5582 3.51825V2.01685H18.4709V3.67511C18.4709 4.07847 18.5693 4.45942 18.7662 4.79556C19.4161 5.87119 20.5582 7.52945 20.637 9.63589C20.6566 10.4202 20.6173 11.1597 20.5385 11.8544C20.44 12.6835 19.8296 13.2886 19.101 13.2886H3.93832C3.20973 13.2886 2.59928 12.6835 2.50082 11.8544C2.42205 11.1821 2.38267 10.4426 2.40236 9.63589C2.48113 7.52945 3.62325 5.87119 4.27308 4.79556C4.47 4.45942 4.56846 4.07847 4.56846 3.67511V2.01685H2.44175V3.49584C2.44175 4.03365 2.28421 4.57147 1.98884 4.99724C1.27993 6.07287 0.0787329 7.6415 0.0196576 9.59108C-0.0394178 10.8684 0.0984247 12.0112 0.295343 12.9972C0.669486 14.7675 2.0676 16 3.66264 16H19.3176C20.9126 16 22.3304 14.7675 22.6849 12.9972C22.9015 12.0112 23.0393 10.8684 23 9.59108Z" fill="#444D58"/>
<path d="M4.54867 2.01681H2.28411C1.94935 2.01681 1.69336 1.70308 1.69336 1.32213V0.694678C1.69336 0.313725 1.94935 0 2.28411 0H3.93822C4.27298 0 4.54867 0.313725 4.54867 0.694678V2.01681Z" fill="#444D58"/>
<path d="M18.4513 2.01681H20.6962C21.031 2.01681 21.3066 1.70308 21.3066 1.32213V0.694678C21.3066 0.313725 21.031 0 20.6962 0H19.0421C18.7073 0 18.4316 0.313725 18.4316 0.694678V2.01681H18.4513Z" fill="#444D58"/>
<path d="M3.70223 6.78992C3.32809 7.66387 2.67826 9.63586 3.13117 11.8319C3.13117 11.8319 3.2887 12.5266 4.2536 12.549C4.2536 12.549 3.93853 8.56023 4.52929 6.36415C4.56867 6.20729 4.43083 6.07283 4.29298 6.14006C4.0173 6.2521 3.82038 6.4986 3.70223 6.78992Z" fill="#1785E0"/>
<path d="M19.3378 6.78992C19.7119 7.66387 20.3618 9.63586 19.9089 11.8319C19.9089 11.8319 19.7513 12.5266 18.7864 12.549C18.7864 12.549 19.1015 8.56023 18.5107 6.36415C18.4714 6.20729 18.6092 6.07283 18.747 6.14006C19.003 6.2521 19.2196 6.4986 19.3378 6.78992Z" fill="#1785E0"/>
</g>
<defs>
<clipPath id="clip0_1_536">
<rect width="23" height="16" fill="white"/>
</clipPath>
</defs>
</svg>
