<svg width="22" height="20" viewBox="0 0 22 20" fill="none" xmlns="http://www.w3.org/2000/svg">
<g clip-path="url(#clip0_1_531)">
<path d="M0.171875 0V1.66452H3.32609H4.77067V6.76129V11.871V13.5226V14.7871L6.33453 16.6323L7.91163 14.7226V13.5226V10.1032V4.99355V1.66452H9.48874H12.4972V0H0.171875Z" fill="#9EACBC"/>
<path d="M9.6748 0V1.66452H12.829H14.2736V6.76129V11.871V13.5226V14.7871L15.8375 16.6323L17.4013 14.7226V13.5226V10.1032V4.99355V1.66452H18.9917H22.0001V0H9.6748Z" fill="#9EACBC"/>
<path d="M18.7928 14.6968L15.8108 18.4387L12.5639 14.6968H9.31687L6.33494 18.4387L3.08795 14.6968H0V20H22V14.6968H18.7928Z" fill="#1994ED"/>
</g>
<defs>
<clipPath id="clip0_1_531">
<rect width="22" height="20" fill="white"/>
</clipPath>
</defs>
</svg>
