<svg width="25" height="28" viewBox="0 0 25 28" fill="none" xmlns="http://www.w3.org/2000/svg">
<g clip-path="url(#clip0_1_511)">
<path d="M24.9365 7.06278C24.8104 6.87444 24.5897 6.81166 24.369 6.90583L22.2883 8.06726L22.2568 5.713C22.2568 5.49327 22.0676 5.30493 21.8469 5.30493C21.6263 5.30493 21.4371 5.49327 21.4371 5.713L21.5002 8.50673L19.5771 9.60538L19.514 5.55605C19.514 5.33632 19.3249 5.14798 19.1042 5.14798C18.8835 5.14798 18.6944 5.33632 18.6944 5.55605L18.7889 10.0762L15.8886 11.7399L16.2353 8.22422C16.2669 8.00448 16.1092 7.78475 15.857 7.78475C15.7625 7.78475 15.6679 7.81614 15.5733 7.87892L12.9251 9.82511V8.13004V7.3139V6.84305L16.9289 4.55157C17.1181 4.42601 17.1811 4.20628 17.0865 3.98655C16.9604 3.79821 16.7398 3.73543 16.5191 3.8296L12.9251 5.90134V5.02242V3.67265L15.3526 2.29148C15.5418 2.16592 15.6048 1.9148 15.5102 1.72646C15.3841 1.53812 15.1319 1.44395 14.9428 1.56951L12.9251 2.73094V0.408072C12.9251 0.251121 12.8305 0.0941704 12.6729 0.0313901C12.6729 0.0313901 12.6414 0.0313901 12.6099 0.0313901C12.5783 0 12.5468 0 12.5153 0C12.4838 0 12.4522 0 12.4207 0.0313901C12.3892 0.0313901 12.3892 0.0313901 12.3577 0.0313901C12.2 0.0941704 12.1055 0.251121 12.1055 0.408072V2.73094L10.0563 1.56951C9.86712 1.44395 9.61491 1.53812 9.48881 1.72646C9.3627 1.9148 9.42576 2.16592 9.64644 2.29148L12.0739 3.67265V5.02242V5.90134L8.47998 3.8296C8.29082 3.70404 8.03862 3.79821 7.91251 3.98655C7.78641 4.17489 7.88099 4.42601 8.07014 4.55157L12.0739 6.84305V7.3139V8.13004V9.82511L9.42575 7.87892C9.33118 7.81614 9.2366 7.78475 9.14202 7.78475C8.92134 7.81614 8.76371 8.00448 8.76371 8.22422L9.14202 11.7399L6.24164 10.0762L6.3047 5.58744C6.3047 5.36771 6.11554 5.17937 5.89486 5.17937C5.67418 5.17937 5.48502 5.36771 5.48502 5.58744L5.42197 9.63677L3.4989 8.53812L3.56195 5.74439C3.56195 5.52466 3.37279 5.33632 3.15211 5.33632C2.93143 5.33632 2.74227 5.52466 2.74227 5.74439L2.71075 8.09865L0.598517 6.90583C0.409362 6.78027 0.157155 6.87444 0.0310515 7.06278C-0.0950519 7.25112 -0.000474345 7.50224 0.188681 7.6278L2.33244 8.85202L0.283258 10.0448C0.0941032 10.1704 0.0310515 10.4215 0.125629 10.6099C0.251732 10.7982 0.503939 10.861 0.693094 10.7668L3.18364 9.35426L5.07519 10.4215L1.60734 12.3991C1.41819 12.5247 1.35514 12.7444 1.44971 12.9641C1.57582 13.1525 1.7965 13.2152 2.01718 13.1211L5.89486 10.8924L8.54303 12.3991L5.5796 13.6861C5.48502 13.7175 5.42197 13.8117 5.35892 13.9058C5.26434 14.1256 5.35892 14.3453 5.5796 14.4395L8.60608 15.7892L6.08401 17.2332L2.23786 14.9417C2.04871 14.8475 1.7965 14.9103 1.6704 15.0987C1.54429 15.287 1.60734 15.5381 1.82802 15.6637L5.29587 17.6413L3.40432 18.7085L0.913775 17.296C0.72462 17.1704 0.472413 17.2646 0.34631 17.4529C0.220207 17.6413 0.314784 17.8924 0.503939 18.0179L2.55312 19.2108L0.409362 20.4036C0.220207 20.5291 0.157155 20.7803 0.251732 20.9686C0.377836 21.1569 0.630043 21.2197 0.819198 21.1256L2.8999 19.9641L2.93143 22.287C2.93143 22.5067 3.12058 22.6951 3.34127 22.6951C3.56195 22.6951 3.7511 22.5067 3.7511 22.287L3.68805 19.4933L5.61113 18.3946L5.67418 22.4439C5.67418 22.6637 5.86333 22.852 6.08401 22.852C6.3047 22.852 6.49385 22.6637 6.49385 22.4439L6.39927 17.9238L9.07897 16.417L8.66913 19.8072C8.66913 19.9013 8.66914 19.9955 8.73219 20.0897C8.85829 20.278 9.1105 20.3094 9.29965 20.1839L11.9793 18.2377V19.87V20.7175V21.1256L8.10167 23.2915C7.91251 23.417 7.84946 23.6368 7.94404 23.8565C8.03862 24.0448 8.29082 24.139 8.51151 24.0135L11.9793 22.0987V23.0404V24.2646L9.45728 25.6771C9.26813 25.8027 9.20507 26.0224 9.29965 26.2422C9.39423 26.4305 9.64644 26.5247 9.86712 26.3991L12.0109 25.2063V25.3946V27.6233C12.0109 27.843 12.2 28.0314 12.4207 28.0314C12.4522 28.0314 12.4522 28.0314 12.4838 28.0314C12.5153 28.0314 12.5153 28.0314 12.5468 28.0314C12.7675 28.0314 12.9566 27.843 12.9566 27.6233V25.3318V25.1435L15.1004 26.3363C15.2896 26.4305 15.5418 26.3677 15.6679 26.1794C15.7625 25.991 15.6994 25.7399 15.5102 25.6143L12.9882 24.2018V22.9776V22.0359L16.456 23.9507C16.6452 24.0448 16.8974 23.9821 17.0235 23.7937C17.1181 23.6054 17.055 23.3543 16.8659 23.2287L12.9882 21.0628V20.6547V19.8386V18.2063L15.6679 20.1525C15.857 20.278 16.1092 20.2466 16.2353 20.0583C16.2984 19.9641 16.3299 19.87 16.2984 19.7758L15.8886 16.3857L18.5683 17.8924L18.4737 22.4126C18.4737 22.6323 18.6628 22.8206 18.8835 22.8206C19.1042 22.8206 19.2933 22.6323 19.2933 22.4126L19.3564 18.3632L21.2795 19.4619L21.2164 22.2556C21.2164 22.4753 21.4056 22.6637 21.6263 22.6637C21.8469 22.6637 22.0361 22.4753 22.0361 22.2556L22.0676 19.9013L24.1483 21.0628C24.3375 21.1883 24.5897 21.0942 24.7158 20.9058C24.8419 20.7175 24.7473 20.4664 24.5582 20.3408L22.4144 19.1166L24.4636 17.9238C24.6527 17.7982 24.7473 17.5785 24.6212 17.3587C24.4951 17.1704 24.2744 17.0762 24.0537 17.2018L21.5632 18.6143L19.6717 17.5471L23.1395 15.5695C23.3287 15.4439 23.3917 15.1928 23.2971 15.0045C23.171 14.8161 22.9503 14.7534 22.7297 14.8475L18.852 17.0762L16.3299 15.6323L19.3564 14.2825C19.5771 14.1883 19.6401 13.9372 19.5771 13.7489C19.5456 13.6547 19.451 13.5919 19.3564 13.5291L16.393 12.2422L19.0411 10.7354L22.9188 12.9641C23.108 13.0897 23.3602 12.9955 23.4863 12.8072C23.5809 12.6188 23.5178 12.3677 23.3287 12.2422L19.8608 10.2646L21.7524 9.19731L24.2429 10.6099C24.4321 10.7354 24.6843 10.6726 24.8104 10.4529C24.9365 10.2646 24.8734 10.0135 24.6527 9.88789L22.6036 8.69507L24.7473 7.47085C24.9995 7.50224 25.0626 7.25112 24.9365 7.06278ZM15.2896 9.07175L14.9743 12.2422L12.9251 13.4036V10.8296L15.2896 9.07175ZM12.0739 10.8296V13.4036L10.0247 12.2422L9.70949 9.07175L12.0739 10.8296ZM6.77758 14L9.45728 12.87L11.5695 14.0628L9.52033 15.2242L6.77758 14ZM9.61491 18.991L9.96169 15.9148L12.0424 14.7534V17.2646L9.61491 18.991ZM12.9566 17.2332V14.722L15.0374 15.8834L15.3841 18.9596L12.9566 17.2332ZM18.2215 14L15.4787 15.2242L13.4295 14.0628L15.5418 12.87L18.2215 14Z" fill="#1994ED"/>
</g>
<defs>
<clipPath id="clip0_1_511">
<rect width="25" height="28" fill="white"/>
</clipPath>
</defs>
</svg>
