<svg width="26" height="28" viewBox="0 0 26 28" fill="none" xmlns="http://www.w3.org/2000/svg">
<g clip-path="url(#clip0_1_497)">
<path d="M7.83504 6.96858C7.96141 7.15692 8.21414 7.18831 8.4037 7.06275C8.59325 6.93719 8.62484 6.68607 8.49847 6.49773L5.74999 2.73091C5.62362 2.57396 5.37089 2.51118 5.18134 2.63674C4.99179 2.7623 4.9602 3.01342 5.08656 3.20176L7.83504 6.96858Z" fill="#1994ED"/>
<path d="M0.315895 10.1704L4.73874 11.6144C4.95988 11.6771 5.18102 11.5516 5.24421 11.3632C5.30739 11.1435 5.18102 10.9238 4.99147 10.861L0.568629 9.41704C0.347487 9.35426 0.126344 9.44843 0.063161 9.66816C-2.24859e-05 9.88789 0.0947527 10.0762 0.315895 10.1704Z" fill="#1994ED"/>
<path d="M5.24413 16.6368C5.18095 16.417 4.92821 16.2915 4.73866 16.3856L0.315821 17.8296C0.0946792 17.8924 -0.0316878 18.1435 0.0630874 18.3318C0.157863 18.5202 0.379005 18.6771 0.568555 18.5829L4.9914 17.139C5.18095 17.0762 5.30732 16.8251 5.24413 16.6368Z" fill="#1994ED"/>
<path d="M8.34022 20.9058C8.15067 20.7802 7.89793 20.8116 7.77157 21L5.02309 24.7354C4.89672 24.9237 4.92831 25.1748 5.11786 25.3004C5.30741 25.426 5.56015 25.3946 5.68651 25.2062L8.43499 21.4708C8.56136 21.3139 8.52977 21.0627 8.34022 20.9058Z" fill="#1994ED"/>
<path d="M25.7158 10.0135L23.6624 8.82063L25.8106 7.59641C26.0002 7.47085 26.0634 7.21973 25.9686 7.03139C25.8422 6.84305 25.6211 6.78027 25.3999 6.87444L23.3149 8.03588L23.2833 5.68161C23.2833 5.46188 23.0937 5.27354 22.8726 5.27354C22.6514 5.27354 22.4619 5.46188 22.4619 5.68161L22.5251 8.47534L20.598 9.57399L20.5348 5.52466C20.5348 5.30493 20.3452 5.11659 20.1241 5.11659C19.903 5.11659 19.7134 5.30493 19.7134 5.52466L19.8082 10.0448L16.9017 11.7085L17.2493 8.19283C17.2808 7.9731 17.1229 7.75336 16.8702 7.75336C16.7754 7.75336 16.6806 7.78475 16.5858 7.84753L13.9005 9.82511V6.84305L17.9127 4.55157C18.1022 4.42601 18.1654 4.20628 18.0706 3.98655C17.9443 3.79821 17.7231 3.73543 17.502 3.8296L13.9005 5.90135V5.02242V3.67265L16.3331 2.29148C16.5226 2.16592 16.5858 1.9148 16.4911 1.72646C16.3647 1.53812 16.112 1.44395 15.9224 1.56951L13.9005 2.73094V0.408072C13.9005 0.188341 13.711 0 13.4898 0C13.2687 0 13.0791 0.188341 13.0791 0.408072V5.02242V7.3139C9.31973 7.53363 6.47648 10.704 6.69762 14.4081C6.88717 17.7982 9.60406 20.4978 13.016 20.7175V22.9776V27.6233C13.016 27.8431 13.2055 28.0314 13.4267 28.0314C13.6478 28.0314 13.8374 27.8431 13.8374 27.6233V25.0807L16.112 26.3363C16.3015 26.4305 16.5542 26.3677 16.6806 26.1794C16.7754 25.991 16.7122 25.7399 16.5226 25.6144L13.9005 24.1704C13.8689 24.1704 13.8689 24.139 13.8374 24.139V22.9776V21.9731L17.4388 23.9821C17.6284 24.0762 17.8811 24.0135 18.0075 23.8251C18.1022 23.6368 18.0391 23.3857 17.8495 23.2601L13.8374 21.0314V18.1749L16.649 20.1839C16.8386 20.3094 17.0913 20.278 17.2177 20.0897C17.2809 19.9955 17.3124 19.9013 17.2809 19.8072L16.8702 16.417L19.5555 17.9238L19.4607 22.4439C19.4607 22.6637 19.6502 22.852 19.8714 22.852C20.0925 22.852 20.2821 22.6637 20.2821 22.4439L20.3452 18.3946L22.2723 19.4933L22.2092 22.287C22.2092 22.5067 22.3987 22.6951 22.6199 22.6951C22.841 22.6951 23.0305 22.5067 23.0305 22.287L23.0621 19.9327L25.1472 21.0942C25.3367 21.2197 25.5895 21.1256 25.7158 20.9372C25.8422 20.7489 25.7474 20.4978 25.5579 20.3722L23.4096 19.148L25.4631 17.9552C25.6527 17.8296 25.7474 17.6099 25.6211 17.3901C25.4947 17.2018 25.2736 17.1076 25.0524 17.2332L22.5567 18.6457L20.6612 17.5785L24.1363 15.6009C24.3258 15.4753 24.389 15.2242 24.2942 15.0359C24.1678 14.8475 23.9467 14.7848 23.7256 14.8789L19.8398 17.1076L17.3124 15.6637L20.3452 14.3139C20.5664 14.2197 20.6296 13.9686 20.5664 13.7803C20.5348 13.6861 20.44 13.6233 20.3452 13.5605L17.3756 12.2735L20.0293 10.7668L23.9151 12.9955C24.1047 13.1211 24.3574 13.0269 24.4838 12.8386C24.5785 12.6502 24.5154 12.3991 24.3258 12.2735L20.8507 10.296L22.7462 9.2287L25.242 10.6413C25.4315 10.7668 25.6843 10.704 25.8106 10.4843C25.937 10.2646 25.9054 10.139 25.7158 10.0135ZM16.3015 9.07175L15.9856 12.2422L13.8689 13.435V10.861L16.3015 9.07175ZM7.519 14C7.519 10.8924 9.95157 8.31839 13.0476 8.13004L13.016 19.87C9.88838 19.713 7.45582 17.1076 7.519 14ZM16.3647 18.991L13.8374 17.2018V14.722L15.9856 15.9462L16.3647 18.991ZM19.2079 14L16.4595 15.2242L14.406 14.0628L16.5226 12.87L19.2079 14Z" fill="#1994ED"/>
<mask id="mask0_1_497" style="mask-type:alpha" maskUnits="userSpaceOnUse" x="0" y="0" width="26" height="28">
<g clip-path="url(#clip1_1_497)">
<path d="M7.83504 6.96858C7.96141 7.15692 8.21414 7.18831 8.4037 7.06275C8.59325 6.93719 8.62484 6.68607 8.49847 6.49773L5.74999 2.73091C5.62362 2.57396 5.37089 2.51118 5.18134 2.63674C4.99179 2.7623 4.9602 3.01342 5.08656 3.20176L7.83504 6.96858Z" fill="#1994ED"/>
<path d="M0.315895 10.1704L4.73874 11.6144C4.95988 11.6771 5.18102 11.5516 5.24421 11.3632C5.30739 11.1435 5.18102 10.9238 4.99147 10.861L0.568629 9.41704C0.347487 9.35426 0.126344 9.44843 0.063161 9.66816C-2.24859e-05 9.88789 0.0947527 10.0762 0.315895 10.1704Z" fill="#1994ED"/>
<path d="M5.24413 16.6368C5.18095 16.417 4.92821 16.2915 4.73866 16.3856L0.315821 17.8296C0.0946792 17.8924 -0.0316878 18.1435 0.0630874 18.3318C0.157863 18.5202 0.379005 18.6771 0.568555 18.5829L4.9914 17.139C5.18095 17.0762 5.30732 16.8251 5.24413 16.6368Z" fill="#1994ED"/>
<path d="M8.34022 20.9058C8.15067 20.7802 7.89793 20.8116 7.77157 21L5.02309 24.7354C4.89672 24.9237 4.92831 25.1748 5.11786 25.3004C5.30741 25.426 5.56015 25.3946 5.68651 25.2062L8.43499 21.4708C8.56136 21.3139 8.52977 21.0627 8.34022 20.9058Z" fill="#1994ED"/>
<path d="M25.7158 10.0135L23.6624 8.82063L25.8106 7.59641C26.0002 7.47085 26.0634 7.21973 25.9686 7.03139C25.8422 6.84305 25.6211 6.78027 25.3999 6.87444L23.3149 8.03588L23.2833 5.68161C23.2833 5.46188 23.0937 5.27354 22.8726 5.27354C22.6514 5.27354 22.4619 5.46188 22.4619 5.68161L22.5251 8.47534L20.598 9.57399L20.5348 5.52466C20.5348 5.30493 20.3452 5.11659 20.1241 5.11659C19.903 5.11659 19.7134 5.30493 19.7134 5.52466L19.8082 10.0448L16.9017 11.7085L17.2493 8.19283C17.2808 7.9731 17.1229 7.75336 16.8702 7.75336C16.7754 7.75336 16.6806 7.78475 16.5858 7.84753L13.9005 9.82511V6.84305L17.9127 4.55157C18.1022 4.42601 18.1654 4.20628 18.0706 3.98655C17.9443 3.79821 17.7231 3.73543 17.502 3.8296L13.9005 5.90135V5.02242V3.67265L16.3331 2.29148C16.5226 2.16592 16.5858 1.9148 16.4911 1.72646C16.3647 1.53812 16.112 1.44395 15.9224 1.56951L13.9005 2.73094V0.408072C13.9005 0.188341 13.711 0 13.4898 0C13.2687 0 13.0791 0.188341 13.0791 0.408072V5.02242V7.3139C9.31973 7.53363 6.47648 10.704 6.69762 14.4081C6.88717 17.7982 9.60406 20.4978 13.016 20.7175V22.9776V27.6233C13.016 27.8431 13.2055 28.0314 13.4267 28.0314C13.6478 28.0314 13.8374 27.8431 13.8374 27.6233V25.0807L16.112 26.3363C16.3015 26.4305 16.5542 26.3677 16.6806 26.1794C16.7754 25.991 16.7122 25.7399 16.5226 25.6144L13.9005 24.1704C13.8689 24.1704 13.8689 24.139 13.8374 24.139V22.9776V21.9731L17.4388 23.9821C17.6284 24.0762 17.8811 24.0135 18.0075 23.8251C18.1022 23.6368 18.0391 23.3857 17.8495 23.2601L13.8374 21.0314V18.1749L16.649 20.1839C16.8386 20.3094 17.0913 20.278 17.2177 20.0897C17.2809 19.9955 17.3124 19.9013 17.2809 19.8072L16.8702 16.417L19.5555 17.9238L19.4607 22.4439C19.4607 22.6637 19.6502 22.852 19.8714 22.852C20.0925 22.852 20.2821 22.6637 20.2821 22.4439L20.3452 18.3946L22.2723 19.4933L22.2092 22.287C22.2092 22.5067 22.3987 22.6951 22.6199 22.6951C22.841 22.6951 23.0305 22.5067 23.0305 22.287L23.0621 19.9327L25.1472 21.0942C25.3367 21.2197 25.5895 21.1256 25.7158 20.9372C25.8422 20.7489 25.7474 20.4978 25.5579 20.3722L23.4096 19.148L25.4631 17.9552C25.6527 17.8296 25.7474 17.6099 25.6211 17.3901C25.4947 17.2018 25.2736 17.1076 25.0524 17.2332L22.5567 18.6457L20.6612 17.5785L24.1363 15.6009C24.3258 15.4753 24.389 15.2242 24.2942 15.0359C24.1678 14.8475 23.9467 14.7848 23.7256 14.8789L19.8398 17.1076L17.3124 15.6637L20.3452 14.3139C20.5664 14.2197 20.6296 13.9686 20.5664 13.7803C20.5348 13.6861 20.44 13.6233 20.3452 13.5605L17.3756 12.2735L20.0293 10.7668L23.9151 12.9955C24.1047 13.1211 24.3574 13.0269 24.4838 12.8386C24.5785 12.6502 24.5154 12.3991 24.3258 12.2735L20.8507 10.296L22.7462 9.2287L25.242 10.6413C25.4315 10.7668 25.6843 10.704 25.8106 10.4843C25.937 10.2646 25.9054 10.139 25.7158 10.0135ZM16.3015 9.07175L15.9856 12.2422L13.8689 13.435V10.861L16.3015 9.07175ZM7.519 14C7.519 10.8924 9.95157 8.31839 13.0476 8.13004L13.016 19.87C9.88838 19.713 7.45582 17.1076 7.519 14ZM16.3647 18.991L13.8374 17.2018V14.722L15.9856 15.9462L16.3647 18.991ZM19.2079 14L16.4595 15.2242L14.406 14.0628L16.5226 12.87L19.2079 14Z" fill="#2EB4FF"/>
</g>
</mask>
<g mask="url(#mask0_1_497)">
<rect x="-9" y="-3" width="22" height="36" fill="#F9C612"/>
</g>
</g>
<defs>
<clipPath id="clip0_1_497">
<rect width="26" height="28" fill="white"/>
</clipPath>
<clipPath id="clip1_1_497">
<rect width="26" height="28" fill="white"/>
</clipPath>
</defs>
</svg>
