<svg width="27" height="28" viewBox="0 0 27 28" fill="none" xmlns="http://www.w3.org/2000/svg">
<g clip-path="url(#clip0_1_513)">
<path d="M7.77712 6.71995C7.90255 6.90661 8.15342 6.93772 8.34158 6.81328C8.52973 6.68883 8.56109 6.43995 8.43565 6.25328L5.70743 2.55106C5.582 2.36439 5.33112 2.33328 5.14297 2.45772C4.95482 2.58217 4.92346 2.83106 5.04889 3.01772L7.77712 6.71995Z" fill="#F9C612"/>
<path d="M0.31389 9.89328L4.70413 11.3244C4.92365 11.3866 5.14316 11.2622 5.20588 11.0755C5.26859 10.8577 5.14316 10.6399 4.95501 10.5777L0.564762 9.14661C0.345249 9.08439 0.125737 9.17772 0.0630194 9.3955C0.000301585 9.61328 0.0943782 9.83105 0.31389 9.89328Z" fill="#F9C612"/>
<path d="M5.20571 16.3022C5.14299 16.0844 4.89212 15.96 4.70397 16.0533L0.313724 17.4844C0.0942117 17.5467 -0.0312239 17.7955 0.0628528 17.9822C0.156929 18.1689 0.376442 18.3244 0.564595 18.2311L4.95484 16.8C5.14299 16.7378 5.26843 16.52 5.20571 16.3022Z" fill="#F9C612"/>
<path d="M8.27908 20.5644C8.09092 20.44 7.84005 20.4711 7.71462 20.6577L4.98639 24.36C4.86096 24.5466 4.89232 24.7955 5.08047 24.92C5.26862 25.0444 5.5195 25.0133 5.64493 24.8266L8.37315 21.1244C8.49859 20.9377 8.46723 20.6889 8.27908 20.5644Z" fill="#F9C612"/>
<path d="M13.4216 7.37329C9.72128 7.37329 6.74219 10.3288 6.74219 14C6.74219 17.6711 9.72128 20.6266 13.4216 20.6266C17.122 20.6266 20.1011 17.6711 20.1011 14C20.1011 10.3288 17.122 7.37329 13.4216 7.37329ZM13.4216 19.8177C10.1917 19.8177 7.55752 17.2044 7.55752 14C7.55752 10.7955 10.1917 8.18218 13.4216 8.18218C16.6516 8.18218 19.2544 10.7955 19.2544 14C19.2544 17.2044 16.6516 19.8177 13.4216 19.8177Z" fill="#F9C612"/>
<path d="M19.2231 20.6266C19.0976 20.44 18.8467 20.4088 18.6586 20.5333C18.4704 20.6577 18.4391 20.9066 18.5645 21.0933L21.2927 24.7955C21.4182 24.9822 21.669 25.0133 21.8572 24.8888C22.0454 24.7644 22.0767 24.5155 21.9513 24.3288L19.2231 20.6266Z" fill="#F9C612"/>
<path d="M26.7179 17.4844L22.3276 16.0533C22.1081 15.9911 21.8886 16.1155 21.8259 16.3022C21.7632 16.52 21.8886 16.7377 22.0768 16.8L26.467 18.2311C26.6865 18.2933 26.906 18.2 26.9687 17.9822C27.0315 17.7644 26.9374 17.5466 26.7179 17.4844Z" fill="#F9C612"/>
<path d="M21.8255 11.0756C21.8883 11.2934 22.1391 11.4178 22.3273 11.3245L26.7175 9.89338C26.937 9.83115 27.0625 9.58227 26.9684 9.3956C26.9057 9.17782 26.6548 9.05338 26.4667 9.14671L22.0764 10.5778C21.8569 10.64 21.7315 10.8578 21.8255 11.0756Z" fill="#F9C612"/>
<path d="M18.7211 6.81328C18.9092 6.93772 19.1601 6.90661 19.2856 6.71995L22.0138 3.01772C22.1392 2.83106 22.1079 2.58217 21.9197 2.45772C21.7315 2.33328 21.4807 2.36439 21.3552 2.55106L18.627 6.25328C18.5016 6.43995 18.5329 6.68883 18.7211 6.81328Z" fill="#F9C612"/>
<path d="M13.2651 22.5867C13.0456 22.5867 12.8574 22.7733 12.8574 22.9911V27.5644C12.8574 27.7822 13.0456 27.9689 13.2651 27.9689C13.4846 27.9689 13.6728 27.7822 13.6728 27.5644V22.9911C13.6728 22.7733 13.4846 22.5867 13.2651 22.5867Z" fill="#F9C612"/>
<path d="M13.5473 5.38222C13.7668 5.38222 13.955 5.19556 13.955 4.97778V0.404444C13.955 0.186667 13.7668 0 13.5473 0C13.3278 0 13.1396 0.186667 13.1396 0.404444V4.97778C13.1396 5.22667 13.3278 5.38222 13.5473 5.38222Z" fill="#F9C612"/>
</g>
<defs>
<clipPath id="clip0_1_513">
<rect width="27" height="28" fill="white"/>
</clipPath>
</defs>
</svg>
