<svg width="22" height="20" viewBox="0 0 22 20" fill="none" xmlns="http://www.w3.org/2000/svg">
<path opacity="0.96" fill-rule="evenodd" clip-rule="evenodd" d="M20.8263 4.08833C20.7527 3.99418 20.6581 3.91782 20.5499 3.86507C20.4416 3.81232 20.3225 3.78457 20.2017 3.78396H5.72637L5.15164 1.58952C5.10944 1.41971 5.0099 1.26899 4.8692 1.16199C4.72851 1.05498 4.55504 0.998013 4.37713 1.00041H1.81182C1.70648 0.997039 1.60159 1.01452 1.50326 1.0518C1.40492 1.08908 1.31516 1.1454 1.23943 1.21742C1.1637 1.28944 1.10345 1.37567 1.06232 1.47101C1.0212 1.56635 1 1.66885 1 1.7724C1 1.87594 1.0212 1.97843 1.06232 2.07377C1.10345 2.16911 1.1637 2.25536 1.23943 2.32737C1.31516 2.39939 1.40492 2.45571 1.50326 2.49299C1.60159 2.53027 1.70648 2.54774 1.81182 2.54437H3.76915L7.00892 15.3011C7.05097 15.471 7.15055 15.6219 7.29126 15.7291C7.43196 15.8363 7.60551 15.8933 7.78354 15.891H17.02C17.1254 15.8943 17.2304 15.8769 17.3287 15.8396C17.427 15.8023 17.5167 15.746 17.5924 15.674C17.6682 15.602 17.7284 15.5157 17.7695 15.4204C17.8107 15.325 17.8319 15.2225 17.8319 15.119C17.8319 15.0155 17.8107 14.913 17.7695 14.8176C17.7284 14.7223 17.6682 14.636 17.5924 14.564C17.5167 14.492 17.427 14.4357 17.3287 14.3984C17.2304 14.3611 17.1254 14.3437 17.02 14.347H8.39151L7.9335 12.5388H18.286C18.4598 12.5368 18.6284 12.4807 18.7676 12.3785C18.9068 12.2763 19.0095 12.1333 19.0606 11.9701L20.9762 4.73799C21.0059 4.62582 21.0078 4.50827 20.9818 4.39522C20.9557 4.28217 20.9024 4.17692 20.8263 4.08833ZM17.6697 11.0153H7.55031L6.10112 5.32791H19.1855L17.6697 11.0153ZM9.28274 16.521C9.53102 16.5266 9.77207 16.6041 9.97572 16.7437C10.1794 16.8834 10.3365 17.0789 10.4275 17.3059C10.5186 17.5329 10.5394 17.7812 10.4874 18.0198C10.4354 18.2584 10.3129 18.4765 10.1352 18.647C9.95758 18.8175 9.73271 18.9327 9.48872 18.9781C9.24473 19.0236 8.99248 18.9973 8.76362 18.9026C8.53477 18.8078 8.33941 18.6489 8.20211 18.4456C8.0648 18.2423 7.99166 18.0037 7.99175 17.7598C7.99327 17.595 8.02794 17.4322 8.09373 17.2807C8.15951 17.1291 8.25508 16.9918 8.37504 16.8767C8.49501 16.7616 8.63694 16.6709 8.7927 16.6099C8.94846 16.5488 9.11506 16.5186 9.28274 16.521ZM15.904 16.521C16.1527 16.525 16.3946 16.6012 16.5993 16.7398C16.8041 16.8785 16.9626 17.0735 17.0549 17.3004C17.1472 17.5273 17.1691 17.7759 17.118 18.015C17.067 18.2541 16.9451 18.4731 16.7678 18.6444C16.5904 18.8156 16.3655 18.9316 16.1213 18.9777C15.877 19.0238 15.6244 18.998 15.3951 18.9035C15.1657 18.809 14.97 18.65 14.8323 18.4465C14.6947 18.243 14.6212 18.0041 14.6214 17.7598C14.6244 17.4285 14.7613 17.1119 15.0018 16.8797C15.2423 16.6474 15.5668 16.5184 15.904 16.521Z" fill="#292F39" stroke="white" stroke-width="0.4"/>
</svg>
