<svg width="183" height="44" viewBox="0 0 183 44" fill="none" xmlns="http://www.w3.org/2000/svg">
<g clip-path="url(#clip0_1_613)">
<path d="M10.7795 12.248H8.72025L0 30.3868V30.8538H4.54814L5.67622 28.4832H13.8056L14.9337 30.8538H19.4818V30.3868L10.7795 12.248ZM7.52055 24.6578L9.7409 20.0423L11.9613 24.6578H7.52055Z" fill="#292F39"/>
<path d="M51.4619 12.2122H46.6631H41.8464H37.0117V16.3607H41.8464V30.8179H46.6631V16.3607H51.4619V12.2122Z" fill="#292F39"/>
<path d="M61.0773 25.017V8.85376H60.2715H56.2605H53.1986V13.0023H56.2605V25.017H53.0195V29.1656H64.1213V25.017H61.0773Z" fill="#1785E0"/>
<path d="M116.282 12.2122V26.382H111.357V12.2122H106.559V26.382H101.455V12.2122H96.6387V26.382V30.8179H101.455H106.559H111.357H116.282H118.126H121.08V12.2122H116.282Z" fill="#292F39"/>
<path d="M139.864 12.2122L137.089 14.8162L130.069 21.3534V12.2122H125.271V30.8179H126.954L127.007 30.764V30.782L137.089 21.4073V30.8179H141.887V12.2122H139.864Z" fill="#292F39"/>
<path d="M157.054 12.2122V18.8032H150.59V12.2122H145.773V30.8179H150.59V23.0954H157.054V30.8179H161.871V12.2122H157.054Z" fill="#292F39"/>
<path d="M34.0932 21.066C34.9527 20.3297 35.5078 19.2522 35.5078 18.0309C35.5078 14.8162 32.9114 12.2122 29.7063 12.2122H25.8027H23.1168H21.0039V30.8179H24.0121H25.8027H30.9597C33.8784 30.8179 36.2599 28.4473 36.2599 25.502V24.9991C36.242 23.3469 35.3825 21.8922 34.0932 21.066ZM25.8027 16.4326H29.1154C29.9748 16.4326 30.6732 17.133 30.6732 17.995C30.6732 18.8571 29.9748 19.5575 29.1154 19.5575H25.8027V16.4326ZM29.8137 26.7771H25.7848V23.4905H29.8137C30.709 23.4905 31.4431 24.2269 31.4431 25.1248C31.4431 26.0228 30.7269 26.7771 29.8137 26.7771Z" fill="#292F39"/>
<path d="M72.9854 0C67.4166 0 62.3133 2.08327 58.4456 5.53143H64.6949V9.15918C67.0764 7.61469 69.9234 6.69878 72.9854 6.69878C81.4012 6.69878 88.2413 13.5412 88.2413 22C88.2413 30.4588 81.4191 37.3012 72.9854 37.3012C68.5447 37.3012 64.5337 35.3976 61.7583 32.3445H53.6289C57.3176 39.2767 64.6053 44 72.9854 44C85.1078 44 94.9203 34.1584 94.9203 22C94.9203 9.84163 85.1078 0 72.9854 0Z" fill="url(#paint0_linear_1_613)"/>
<path d="M72.8236 14.2776C68.5799 14.2776 65.124 17.7437 65.124 22C65.124 26.2564 68.5799 29.7225 72.8236 29.7225C77.0674 29.7225 80.5232 26.2564 80.5232 22C80.5232 17.7437 77.0853 14.2776 72.8236 14.2776ZM72.8236 24.9274C71.2479 24.9274 69.9587 23.6343 69.9587 22.0539C69.9587 20.4735 71.2479 19.1804 72.8236 19.1804C74.3994 19.1804 75.6886 20.4735 75.6886 22.0539C75.6886 23.6343 74.4173 24.9274 72.8236 24.9274Z" fill="#1785E0"/>
<path d="M68.4365 34.733L70.7464 30.8897C70.7464 30.8897 75.0618 31.662 77.0314 30.2073L73.88 35.6489C73.88 35.6489 70.9792 35.9901 68.4365 34.733Z" fill="#168DE8"/>
<path d="M85.6989 26.4897L81.7775 24.3167C81.7775 24.3167 82.6728 20.1322 80.9717 18.1028L86.3972 21.0122C86.4151 20.9942 86.7912 24.3346 85.6989 26.4897Z" fill="#1785E0"/>
<path d="M77.2645 9.39258L75.0083 13.164C75.0083 13.164 71.069 12.2661 68.6875 13.9183L71.8211 8.47666C71.8211 8.49462 74.9546 8.13544 77.2645 9.39258Z" fill="#187ED9"/>
<path d="M174.279 12.2122H172.22L163.5 30.3509V30.8179H168.048L169.176 28.4473H177.306L178.434 30.8179H182.982V30.3509L174.279 12.2122ZM171.021 24.622L173.241 20.0064L175.461 24.622H171.021Z" fill="#292F39"/>
</g>
<defs>
<linearGradient id="paint0_linear_1_613" x1="74.2746" y1="0" x2="74.2746" y2="44" gradientUnits="userSpaceOnUse">
<stop stop-color="#1976D2"/>
<stop offset="1" stop-color="#1694EE"/>
</linearGradient>
<clipPath id="clip0_1_613">
<rect width="183" height="44" fill="white"/>
</clipPath>
</defs>
</svg>
