<svg width="50" height="50" viewBox="0 0 50 50" fill="none" xmlns="http://www.w3.org/2000/svg">
<circle opacity="0.2" cx="25" cy="25" r="25" fill="#1783DE"/>
<circle cx="25" cy="25" r="22" fill="url(#paint0_linear_1_558)"/>
<path d="M30.7071 27.7071L33.3552 30.3552C33.7113 30.7113 33.7113 31.2887 33.3552 31.6448C31.43 33.57 28.3821 33.7866 26.204 32.153L24.6286 30.9714C22.885 29.6638 21.3362 28.115 20.0286 26.3714L18.847 24.796C17.2134 22.6179 17.43 19.57 19.3552 17.6448C19.7113 17.2887 20.2887 17.2887 20.6448 17.6448L23.2929 20.2929C23.6834 20.6834 23.6834 21.3166 23.2929 21.7071L22.2717 22.7283C22.1095 22.8905 22.0692 23.1385 22.1719 23.3437C23.3585 25.7171 25.2829 27.6415 27.6563 28.8281C27.8615 28.9308 28.1095 28.8905 28.2717 28.7283L29.2929 27.7071C29.6834 27.3166 30.3166 27.3166 30.7071 27.7071Z" stroke="white"/>
<defs>
<linearGradient id="paint0_linear_1_558" x1="47" y1="25" x2="3" y2="25" gradientUnits="userSpaceOnUse">
<stop stop-color="#1976D2"/>
<stop offset="1" stop-color="#1696EF"/>
</linearGradient>
</defs>
</svg>
