<svg width="18" height="20" viewBox="0 0 18 20" fill="none" xmlns="http://www.w3.org/2000/svg">
<path d="M9.39827 19.0909L9.17 18.646H9.17L9.39827 19.0909ZM8.60173 19.0909L8.83 18.646H8.83L8.60173 19.0909ZM16.5 9C16.5 11.7161 15.0996 13.9116 13.4522 15.5549C11.8056 17.1975 9.95603 18.2427 9.17 18.646L9.62654 19.5357C10.457 19.1096 12.4083 18.0087 14.1584 16.2629C15.9078 14.5178 17.5 12.0826 17.5 9H16.5ZM9 1.5C13.1421 1.5 16.5 4.85786 16.5 9H17.5C17.5 4.30558 13.6944 0.5 9 0.5V1.5ZM1.5 9C1.5 4.85786 4.85786 1.5 9 1.5V0.5C4.30558 0.5 0.5 4.30558 0.5 9H1.5ZM8.83 18.646C8.04397 18.2427 6.19441 17.1975 4.54779 15.5549C2.90041 13.9116 1.5 11.7161 1.5 9H0.5C0.5 12.0826 2.0922 14.5178 3.84155 16.2629C5.59167 18.0087 7.54297 19.1096 8.37346 19.5357L8.83 18.646ZM9.17 18.646C9.05986 18.7026 8.94014 18.7026 8.83 18.646L8.37346 19.5357C8.77019 19.7393 9.22981 19.7393 9.62654 19.5357L9.17 18.646ZM11.9286 9C11.9286 10.6174 10.6174 11.9286 9 11.9286V12.9286C11.1697 12.9286 12.9286 11.1697 12.9286 9H11.9286ZM9 6.07143C10.6174 6.07143 11.9286 7.3826 11.9286 9H12.9286C12.9286 6.83031 11.1697 5.07143 9 5.07143V6.07143ZM6.07143 9C6.07143 7.3826 7.38259 6.07143 9 6.07143V5.07143C6.83031 5.07143 5.07143 6.83031 5.07143 9H6.07143ZM9 11.9286C7.38259 11.9286 6.07143 10.6174 6.07143 9H5.07143C5.07143 11.1697 6.83031 12.9286 9 12.9286V11.9286Z" fill="#1976D2"/>
</svg>
