<svg width="16" height="16" viewBox="0 0 16 16" fill="none" xmlns="http://www.w3.org/2000/svg">
<g opacity="0.7">
<path d="M8.00489 1.4415C10.1437 1.4415 10.397 1.45089 11.2381 1.48841C12.0198 1.5228 12.442 1.65413 12.7234 1.76358C13.0955 1.90741 13.3644 2.08252 13.6427 2.36082C13.9241 2.64224 14.0961 2.90803 14.2399 3.28013C14.3494 3.56155 14.4807 3.98681 14.5151 4.76541C14.5526 5.60967 14.562 5.86295 14.562 7.99863C14.562 10.1374 14.5526 10.3907 14.5151 11.2319C14.4807 12.0136 14.3494 12.4357 14.2399 12.7171C14.0961 13.0892 13.921 13.3582 13.6427 13.6364C13.3613 13.9179 13.0955 14.0899 12.7234 14.2337C12.442 14.3431 12.0167 14.4745 11.2381 14.5089C10.3938 14.5464 10.1406 14.5558 8.00489 14.5558C5.86608 14.5558 5.6128 14.5464 4.77166 14.5089C3.98994 14.4745 3.5678 14.3431 3.28638 14.2337C2.91428 14.0899 2.64536 13.9147 2.36707 13.6364C2.08565 13.355 1.91367 13.0892 1.76983 12.7171C1.66039 12.4357 1.52906 12.0105 1.49466 11.2319C1.45714 10.3876 1.44776 10.1343 1.44776 7.99863C1.44776 5.85983 1.45714 5.60655 1.49466 4.76541C1.52906 3.98368 1.66039 3.56155 1.76983 3.28013C1.91367 2.90803 2.08877 2.63911 2.36707 2.36082C2.64849 2.07939 2.91428 1.90741 3.28638 1.76358C3.5678 1.65413 3.99306 1.5228 4.77166 1.48841C5.6128 1.45089 5.86608 1.4415 8.00489 1.4415ZM8.00489 0C5.83168 0 5.55964 0.00938072 4.706 0.0469036C3.85548 0.0844265 3.27075 0.22201 2.76419 0.419006C2.23574 0.625382 1.78859 0.897423 1.34457 1.34457C0.897423 1.78859 0.625382 2.23574 0.419006 2.76106C0.22201 3.27075 0.0844265 3.85235 0.0469036 4.70287C0.00938073 5.55964 0 5.83168 0 8.00489C0 10.1781 0.00938073 10.4501 0.0469036 11.3038C0.0844265 12.1543 0.22201 12.739 0.419006 13.2456C0.625382 13.774 0.897423 14.2212 1.34457 14.6652C1.78859 15.1092 2.23574 15.3844 2.76106 15.5876C3.27075 15.7846 3.85235 15.9222 4.70287 15.9597C5.55652 15.9973 5.82856 16.0066 8.00176 16.0066C10.175 16.0066 10.447 15.9973 11.3006 15.9597C12.1512 15.9222 12.7359 15.7846 13.2425 15.5876C13.7678 15.3844 14.2149 15.1092 14.6589 14.6652C15.103 14.2212 15.3781 13.774 15.5814 13.2487C15.7784 12.739 15.916 12.1574 15.9535 11.3069C15.991 10.4533 16.0004 10.1812 16.0004 8.00801C16.0004 5.83481 15.991 5.56277 15.9535 4.70912C15.916 3.85861 15.7784 3.27387 15.5814 2.76731C15.3844 2.23574 15.1123 1.78859 14.6652 1.34457C14.2212 0.90055 13.774 0.625382 13.2487 0.422133C12.739 0.225137 12.1574 0.0875534 11.3069 0.0500305C10.4501 0.00938073 10.1781 0 8.00489 0Z" fill="white"/>
<path d="M8.00544 3.89307C5.7353 3.89307 3.89355 5.73482 3.89355 8.00495C3.89355 10.2751 5.7353 12.1168 8.00544 12.1168C10.2756 12.1168 12.1173 10.2751 12.1173 8.00495C12.1173 5.73482 10.2756 3.89307 8.00544 3.89307ZM8.00544 10.6722C6.53267 10.6722 5.33819 9.47772 5.33819 8.00495C5.33819 6.53218 6.53267 5.3377 8.00544 5.3377C9.47821 5.3377 10.6727 6.53218 10.6727 8.00495C10.6727 9.47772 9.47821 10.6722 8.00544 10.6722Z" fill="white"/>
<path d="M13.2393 3.73023C13.2393 4.2618 12.8077 4.69019 12.2793 4.69019C11.7477 4.69019 11.3193 4.25867 11.3193 3.73023C11.3193 3.19865 11.7508 2.77026 12.2793 2.77026C12.8077 2.77026 13.2393 3.20178 13.2393 3.73023Z" fill="white"/>
</g>
</svg>
